<svg width="432" height="411" viewBox="0 0 432 411" fill="none" xmlns="http://www.w3.org/2000/svg">
<path d="M147.656 140.479C155.587 133.013 168.413 133.013 175.584 140.479L215.241 178.287L255.656 140.479C263.587 133.013 276.413 133.013 283.584 140.479C292.191 148.024 292.191 160.226 283.584 167.049L244.603 204.778L283.584 243.229C292.191 250.774 292.191 262.976 283.584 269.799C276.413 277.987 263.587 277.987 255.656 269.799L215.241 232.713L175.584 269.799C168.413 277.987 155.587 277.987 147.656 269.799C139.809 262.976 139.809 250.774 147.656 243.229L187.397 204.778L147.656 167.049C139.809 160.226 139.809 148.024 147.656 140.479ZM432 205.5C432 319.007 335.306 411 216 411C96.6938 411 0 319.007 0 205.5C0 91.9934 96.6938 0 216 0C335.306 0 432 91.9934 432 205.5ZM216 38.5312C119.053 38.5312 40.5 113.266 40.5 205.5C40.5 297.734 119.053 372.469 216 372.469C312.947 372.469 391.5 297.734 391.5 205.5C391.5 113.266 312.947 38.5312 216 38.5312Z" fill="#000"/>
</svg>
